<svg width="24" height="24" viewBox="0 0 24 24" fill="none" xmlns="http://www.w3.org/2000/svg">
<path d="M5.26904 10.5C5.26657 9.61443 5.43885 8.73709 5.77603 7.91823C6.1132 7.09937 6.60864 6.3551 7.23394 5.72804C7.85925 5.10098 8.60214 4.60347 9.42006 4.26401C10.238 3.92455 11.1148 3.74982 12.0004 3.74982C12.8859 3.74982 13.7628 3.92455 14.5807 4.26401C15.3986 4.60347 16.1415 5.10098 16.7668 5.72804C17.3921 6.3551 17.8876 7.09937 18.2247 7.91823C18.5619 8.73709 18.7342 9.61443 18.7317 10.5V10.5C18.7317 13.8577 19.4342 15.8061 20.0529 16.8711C20.1196 16.9848 20.1551 17.1142 20.1558 17.2461C20.1565 17.3779 20.1224 17.5077 20.0569 17.6222C19.9915 17.7366 19.8971 17.8319 19.7831 17.8982C19.6691 17.9645 19.5397 17.9996 19.4078 18H4.59222C4.46034 17.9996 4.33087 17.9645 4.21689 17.8982C4.1029 17.8318 4.00844 17.7366 3.94301 17.6221C3.87759 17.5076 3.84352 17.3778 3.84425 17.2459C3.84498 17.114 3.88048 16.9847 3.94716 16.8709C4.56622 15.8059 5.26904 13.8575 5.26904 10.5H5.26904Z" stroke="#767F8C" stroke-width="1.5" stroke-linecap="round" stroke-linejoin="round"/>
<path d="M9 18V18.75C9 19.5456 9.31607 20.3087 9.87868 20.8713C10.4413 21.4339 11.2044 21.75 12 21.75C12.7956 21.75 13.5587 21.4339 14.1213 20.8713C14.6839 20.3087 15 19.5456 15 18.75V18" stroke="#767F8C" stroke-width="1.5" stroke-linecap="round" stroke-linejoin="round"/>
<path d="M17.1968 2.2489C18.7229 3.21233 19.9531 4.57872 20.7516 6.19724" stroke="#767F8C" stroke-width="1.5" stroke-linecap="round" stroke-linejoin="round"/>
<path d="M3.24854 6.19724C4.04705 4.57872 5.27728 3.21233 6.80339 2.2489" stroke="#767F8C" stroke-width="1.5" stroke-linecap="round" stroke-linejoin="round"/>
</svg>
