<svg width="32" height="32" viewBox="0 0 32 32" fill="none" xmlns="http://www.w3.org/2000/svg">
<g clip-path="url(#clip0_35_4784)">
<path opacity="0.2" d="M16 19.0001C11.7872 19.0067 7.64764 17.8992 4.00098 15.7899V26.0001C4.00098 26.1314 4.02684 26.2614 4.0771 26.3827C4.12735 26.5041 4.20101 26.6143 4.29387 26.7072C4.38673 26.8 4.49697 26.8737 4.61829 26.9239C4.73962 26.9742 4.86965 27.0001 5.00098 27.0001H27.001C27.1323 27.0001 27.2623 26.9742 27.3837 26.9239C27.505 26.8737 27.6152 26.8 27.7081 26.7072C27.8009 26.6143 27.8746 26.5041 27.9249 26.3827C27.9751 26.2614 28.001 26.1314 28.001 26.0001V15.7887C24.3539 17.8988 20.2135 19.0067 16 19.0001Z" fill="#0A65CC"/>
<path d="M27.001 9.00006H5.00098C4.44869 9.00006 4.00098 9.44778 4.00098 10.0001V26.0001C4.00098 26.5523 4.44869 27.0001 5.00098 27.0001H27.001C27.5533 27.0001 28.001 26.5523 28.001 26.0001V10.0001C28.001 9.44778 27.5533 9.00006 27.001 9.00006Z" stroke="#0A65CC" stroke-width="1.5" stroke-linecap="round" stroke-linejoin="round"/>
<path d="M21 9V7C21 6.46957 20.7893 5.96086 20.4142 5.58579C20.0391 5.21071 19.5304 5 19 5H13C12.4696 5 11.9609 5.21071 11.5858 5.58579C11.2107 5.96086 11 6.46957 11 7V9" stroke="#0A65CC" stroke-width="1.5" stroke-linecap="round" stroke-linejoin="round"/>
<path d="M28.0012 15.7888C24.354 17.8988 20.2137 19.0067 16.0002 19.0001C11.7873 19.0067 7.64768 17.8992 4.00098 15.7898" stroke="#0A65CC" stroke-width="1.5" stroke-linecap="round" stroke-linejoin="round"/>
<path d="M14.5 15H17.5" stroke="#0A65CC" stroke-width="1.5" stroke-linecap="round" stroke-linejoin="round"/>
</g>
<defs>
<clipPath id="clip0_35_4784">
<rect width="32" height="32" fill="white"/>
</clipPath>
</defs>
</svg>
