<svg width="24" height="24" viewBox="0 0 24 24" fill="none" xmlns="http://www.w3.org/2000/svg">
<path d="M12 13.125C12.6213 13.125 13.125 12.6213 13.125 12C13.125 11.3787 12.6213 10.875 12 10.875C11.3787 10.875 10.875 11.3787 10.875 12C10.875 12.6213 11.3787 13.125 12 13.125Z" fill="#767F8C" stroke="#767F8C"/>
<path d="M12 6.6499C12.6213 6.6499 13.125 6.14622 13.125 5.5249C13.125 4.90358 12.6213 4.3999 12 4.3999C11.3787 4.3999 10.875 4.90358 10.875 5.5249C10.875 6.14622 11.3787 6.6499 12 6.6499Z" fill="#767F8C" stroke="#767F8C"/>
<path d="M12 19.6099C12.6213 19.6099 13.125 19.1062 13.125 18.4849C13.125 17.8635 12.6213 17.3599 12 17.3599C11.3787 17.3599 10.875 17.8635 10.875 18.4849C10.875 19.1062 11.3787 19.6099 12 19.6099Z" fill="#767F8C" stroke="#767F8C"/>
</svg>
