<svg width="28" height="28" viewBox="0 0 28 28" fill="none" xmlns="http://www.w3.org/2000/svg">
<g clip-path="url(#clip0_63_86769)">
<path fill-rule="evenodd" clip-rule="evenodd" d="M10.3032 0C8.75865 0.00114169 7.50861 1.25472 7.50975 2.79943C7.50861 4.34414 8.75979 5.59772 10.3044 5.59886H13.099V2.80057C13.1001 1.25586 11.8489 0.00228338 10.3032 0C10.3044 0 10.3044 0 10.3032 0V0ZM10.3032 7.46667H2.85321C1.30864 7.46781 0.0574553 8.72139 0.0585969 10.2661C0.0563137 11.8108 1.3075 13.0644 2.85207 13.0667H10.3032C11.8478 13.0655 13.099 11.8119 13.0978 10.2672C13.099 8.72139 11.8478 7.46781 10.3032 7.46667V7.46667Z" fill="#36C5F0"/>
<path fill-rule="evenodd" clip-rule="evenodd" d="M28.0002 10.2661C28.0013 8.72139 26.7501 7.46781 25.2056 7.46667C23.661 7.46781 22.4098 8.72139 22.411 10.2661V13.0667H25.2056C26.7501 13.0655 28.0013 11.8119 28.0002 10.2661ZM20.549 10.2661V2.79943C20.5502 1.25586 19.3001 0.00228338 17.7556 0C16.211 0.00114169 14.9598 1.25472 14.9609 2.79943V10.2661C14.9587 11.8108 16.2098 13.0644 17.7544 13.0667C19.299 13.0655 20.5502 11.8119 20.549 10.2661Z" fill="#2EB67D"/>
<path fill-rule="evenodd" clip-rule="evenodd" d="M17.7546 28C19.2991 27.9988 20.5503 26.7452 20.5492 25.2005C20.5503 23.6558 19.2991 22.4022 17.7546 22.4011H14.96V25.2005C14.9588 26.7441 16.21 27.9977 17.7546 28ZM17.7546 20.5321H25.2057C26.7503 20.531 28.0015 19.2774 28.0004 17.7327C28.0026 16.188 26.7515 14.9344 25.2069 14.9321H17.7557C16.2111 14.9333 14.96 16.1869 14.9611 17.7316C14.96 19.2774 16.21 20.531 17.7546 20.5321V20.5321Z" fill="#ECB22E"/>
<path fill-rule="evenodd" clip-rule="evenodd" d="M0.0585945 17.7328C0.0574529 19.2775 1.30864 20.5311 2.85321 20.5322C4.39778 20.5311 5.64896 19.2775 5.64782 17.7328V14.9333H2.85321C1.30864 14.9345 0.0574529 16.1881 0.0585945 17.7328ZM7.50975 17.7328V25.1995C7.50747 26.7442 8.75865 27.9978 10.3032 28C11.8478 27.9989 13.099 26.7453 13.0978 25.2006V17.7351C13.1001 16.1904 11.8489 14.9368 10.3044 14.9345C8.75865 14.9345 7.50861 16.1881 7.50975 17.7328C7.50975 17.7339 7.50975 17.7328 7.50975 17.7328Z" fill="#E01E5A"/>
</g>
<defs>
<clipPath id="clip0_63_86769">
<rect width="28" height="28" fill="white"/>
</clipPath>
</defs>
</svg>
