<svg width="28" height="28" viewBox="0 0 28 28" fill="none" xmlns="http://www.w3.org/2000/svg">
<path d="M15.1809 2.43702C17.0197 0.0123092 19.576 0.000488281 19.576 0.000488281C19.576 0.000488281 19.9563 2.28013 18.1295 4.47615C16.179 6.82101 13.962 6.43731 13.962 6.43731C13.962 6.43731 13.5458 4.59316 15.1809 2.43702V2.43702ZM14.1959 8.03419C15.1419 8.03419 16.8975 6.73325 19.1828 6.73325C23.1164 6.73325 24.6639 9.53361 24.6639 9.53361C24.6639 9.53361 21.6373 11.0818 21.6373 14.8383C21.6373 19.0761 25.4076 20.5365 25.4076 20.5365C25.4076 20.5365 22.772 27.9582 19.212 27.9582C17.577 27.9582 16.3058 26.8559 14.583 26.8559C12.8274 26.8559 11.0851 27.9994 9.9504 27.9994C6.69963 27.9995 2.59277 20.9592 2.59277 15.2999C2.59277 9.73208 6.06896 6.81126 9.32948 6.81126C11.4491 6.81126 13.094 8.03419 14.1959 8.03419V8.03419Z" fill="white"/>
</svg>
