<svg width="28" height="28" viewBox="0 0 28 28" fill="none" xmlns="http://www.w3.org/2000/svg">
<path d="M21.5641 15.3285C20.2966 15.3285 19.1089 14.7931 18.0298 13.9216L18.2925 12.6914L18.304 12.6458C18.5379 11.3359 19.2802 9.13715 21.5641 9.13715C23.2769 9.13715 24.6701 10.527 24.6701 12.2356C24.6643 13.9387 23.2713 15.3285 21.5641 15.3285V15.3285ZM21.5641 5.99886C18.6464 5.99886 16.3855 7.88986 15.4664 10.9997C14.0617 8.89797 12.9997 6.37481 12.3774 4.25024H9.23716V12.4008C9.23716 14.007 7.92393 15.3169 6.31381 15.3169C4.70369 15.3169 3.39061 14.007 3.39061 12.4008V4.25024H0.250036V12.4008C0.238611 15.7386 2.96211 18.4782 6.30787 18.4782C9.65378 18.4782 12.3773 15.7386 12.3773 12.4008V11.0339C12.9881 12.304 13.7361 13.5855 14.6439 14.7248L12.7197 23.7467H15.9343L17.3274 17.2023C18.5492 17.9826 19.9538 18.4726 21.564 18.4726C25.0068 18.4726 27.8102 15.6589 27.8102 12.2242C27.8102 8.79539 25.0068 5.99886 21.564 5.99886H21.5641Z" fill="white"/>
</svg>
