<svg width="24" height="24" viewBox="0 0 24 24" fill="none" xmlns="http://www.w3.org/2000/svg">
<path d="M13.012 2.08897C14.5881 0.010651 16.7792 0.000518799 16.7792 0.000518799C16.7792 0.000518799 17.1052 1.9545 15.5394 3.8368C13.8675 5.84668 11.9673 5.5178 11.9673 5.5178C11.9673 5.5178 11.6104 3.93709 13.012 2.08897V2.08897ZM12.1677 6.88655C12.9785 6.88655 14.4834 5.77146 16.4422 5.77146C19.8138 5.77146 21.1402 8.17176 21.1402 8.17176C21.1402 8.17176 18.546 9.49877 18.546 12.7187C18.546 16.351 21.7777 17.6028 21.7777 17.6028C21.7777 17.6028 19.5186 23.9643 16.4673 23.9643C15.0658 23.9643 13.9762 23.0194 12.4995 23.0194C10.9947 23.0194 9.50133 23.9996 8.52871 23.9996C5.74233 23.9996 2.22217 17.9651 2.22217 13.1143C2.22217 8.34188 5.20175 5.83832 7.99649 5.83832C9.81331 5.83832 11.2232 6.88655 12.1677 6.88655V6.88655Z" fill="white"/>
</svg>
