<svg width="24" height="24" viewBox="0 0 24 24" fill="none" xmlns="http://www.w3.org/2000/svg">
<path d="M18.4833 13.1387C17.3969 13.1387 16.3789 12.6799 15.4539 11.9329L15.6791 10.8783L15.6889 10.8393C15.8895 9.7165 16.5257 7.83188 18.4833 7.83188C19.9515 7.83188 21.1456 9.02316 21.1456 10.4877C21.1407 11.9475 19.9466 13.1387 18.4833 13.1387V13.1387ZM18.4833 5.14191C15.9824 5.14191 14.0446 6.76277 13.2567 9.42838C12.0527 7.62686 11.1424 5.46415 10.6091 3.6431H7.91739V10.6293C7.91739 12.0061 6.79177 13.1288 5.41166 13.1288C4.03156 13.1288 2.90606 12.0061 2.90606 10.6293V3.6431H0.214142V10.6293C0.204349 13.4903 2.53877 15.8385 5.40657 15.8385C8.2745 15.8385 10.6089 13.4903 10.6089 10.6293V9.45769C11.1325 10.5463 11.7736 11.6448 12.5518 12.6213L10.9024 20.3543H13.6578L14.8519 14.7449C15.8991 15.4137 17.1031 15.8337 18.4832 15.8337C21.4342 15.8337 23.8372 13.4219 23.8372 10.478C23.8372 7.53894 21.4342 5.14191 18.4832 5.14191H18.4833Z" fill="white"/>
</svg>
