<svg width="28" height="28" viewBox="0 0 28 28" fill="none" xmlns="http://www.w3.org/2000/svg">
<g clip-path="url(#clip0_63_86711)">
<path d="M9.52428 2.57346C10.7723 2.96227 11.1597 3.96669 11.1597 5.11151C11.1489 6.01872 11.0413 6.92594 10.8261 7.81156C10.3635 9.83119 9.79326 11.8292 9.31986 13.8381C8.93253 15.4905 8.57748 17.1645 8.56672 18.871C8.57748 19.3354 8.65279 19.7998 8.7819 20.2426C9.02936 21.1282 9.77174 21.193 10.3312 20.653C10.6863 20.3074 11.009 19.9402 11.2995 19.5406C12.6982 17.6721 13.9355 15.6849 14.9899 13.6005C16.012 11.6024 18.3468 7.08794 18.4867 6.81794C19.2183 5.46791 21.241 5.69472 21.8543 7.01234C22.1986 7.72515 22.3922 8.51357 22.4245 9.30198C22.4783 11.0084 22.6397 15.7713 22.715 16.4517C22.8549 17.7693 23.6941 18.1905 24.813 17.4561C25.4909 17.0133 26.1041 16.4517 26.7174 15.9225C27.2876 15.4149 27.5889 15.4689 27.8686 16.1817C28.1161 16.8081 28.0085 17.4345 27.8041 18.0285C27.1155 20.0374 25.62 21.1066 23.6295 21.5386C22.9947 21.679 22.3384 21.6898 21.6929 21.5818C20.2619 21.3442 19.3474 20.5126 18.7987 19.2274C18.2715 17.9853 18.1101 14.4537 17.9917 14.0001C17.7981 14.4105 15.5064 19.1518 14.3013 20.9554C13.5482 22.111 12.6337 23.1586 11.5793 24.0551C10.5356 24.9299 9.35214 25.4699 7.96421 25.5023C6.28578 25.5455 5.07 24.7787 4.23078 23.353C3.69283 22.435 3.46689 21.409 3.39157 20.3506C3.28398 18.871 3.52068 17.4237 3.84346 15.9765C3.95105 15.5121 4.02636 15.0369 4.14471 14.4429C3.68207 14.6805 3.38081 14.8965 3.03652 15.0153C2.62767 15.1557 2.18655 15.2961 1.75618 15.2853C0.228383 15.2421 0.00244141 13.5465 0.00244141 13.2657C0.51888 12.866 1.0676 12.4988 1.541 12.0668C3.80042 10.0148 5.50036 7.55235 6.72691 4.7659C7.13575 3.84788 7.64143 3.05947 8.5452 2.57346C8.84646 2.44386 9.11544 2.43306 9.52428 2.57346Z" fill="white"/>
</g>
<defs>
<clipPath id="clip0_63_86711">
<rect width="28" height="28" fill="white"/>
</clipPath>
</defs>
</svg>
