<svg width="24" height="24" viewBox="0 0 24 24" fill="none" xmlns="http://www.w3.org/2000/svg">
<path d="M12.532 20.4489L7.60802 20.357C6.01372 20.325 4.41549 20.3889 2.85252 20.0572C0.474776 19.5615 0.306336 17.1312 0.130061 15.0926C-0.112806 12.2266 -0.0187932 9.30859 0.439521 6.46656C0.698057 4.87166 1.71653 3.92032 3.29125 3.81639C8.60691 3.44065 13.9578 3.48462 19.2617 3.6605C19.8219 3.67649 20.386 3.76443 20.9383 3.86436C23.6647 4.35202 23.7313 7.10612 23.9075 9.42451C24.0838 11.7669 24.0094 14.1213 23.6725 16.4477C23.4022 18.3743 22.8852 19.9892 20.7033 20.1451C17.9691 20.349 15.2975 20.5128 12.5555 20.4609C12.5555 20.4489 12.5398 20.4489 12.532 20.4489V20.4489ZM9.63714 15.5723C11.6976 14.3651 13.7189 13.1779 15.7676 11.9787C13.7032 10.7716 11.6858 9.5844 9.63714 8.38523V15.5723Z" fill="white"/>
</svg>
