<svg width="28" height="28" viewBox="0 0 28 28" fill="none" xmlns="http://www.w3.org/2000/svg">
<path d="M8.75661 25.2038C19.2642 25.2038 25.0105 16.5486 25.0105 9.04307C25.0105 8.79727 25.0054 8.55259 24.9943 8.30892C26.1124 7.50453 27.0773 6.50856 27.8439 5.36771C26.8203 5.82017 25.7188 6.1247 24.5633 6.262C25.7427 5.55884 26.6482 4.44642 27.0754 3.12043C25.954 3.78185 24.7272 4.24811 23.4479 4.49913C22.4054 3.39509 20.9213 2.70459 19.278 2.70459C16.1232 2.70459 13.565 5.24824 13.565 8.38367C13.565 8.82944 13.6152 9.26289 13.7132 9.67879C8.96533 9.44125 4.75525 7.18109 1.93764 3.74439C1.43016 4.6112 1.16324 5.59633 1.16412 6.5992C1.16412 8.5698 2.17261 10.3094 3.70629 11.3271C2.7991 11.2996 1.91183 11.056 1.11907 10.6167C1.11823 10.6406 1.11823 10.6638 1.11823 10.6893C1.11823 13.44 3.08733 15.7366 5.70126 16.2571C5.21033 16.39 4.70374 16.4572 4.19492 16.4569C3.82746 16.4569 3.46933 16.421 3.12129 16.3545C3.84857 18.6113 5.95746 20.2536 8.4578 20.2995C6.50256 21.8232 4.03957 22.7308 1.36265 22.7308C0.907274 22.7311 0.452269 22.7049 0 22.6521C2.52825 24.2633 5.53029 25.2034 8.7569 25.2034" fill="white"/>
</svg>
