<svg width="28" height="28" viewBox="0 0 28 28" fill="none" xmlns="http://www.w3.org/2000/svg">
<path d="M4.8737 18.7845C4.76843 18.2151 4.63159 17.6562 4.55791 17.0868C4.26317 14.862 4.73685 12.8059 6.05264 10.9711C7.08422 9.52657 8.49475 8.52486 10.1158 7.82894C12.0632 6.99594 14.1579 6.54253 16.2737 6.50035C18.1579 6.44763 19.8 7.14356 21.2316 8.32452C22.7053 9.54766 23.8421 11.0555 24.7158 12.7531C25.1368 13.5756 25.5263 14.4191 25.9263 15.2627C25.9684 15.3576 26 15.463 26.021 15.5685C25.4632 15.9059 24.9263 16.2538 24.3579 16.5596C22.2526 17.7195 19.9789 18.5103 17.6105 18.9216C16.3158 19.143 15.0105 19.2695 13.7053 19.3539C12.4632 19.4382 11.2211 19.4804 9.97896 19.4488C8.28422 19.4066 6.60001 19.143 4.8737 18.7845V18.7845ZM7.54738 13.1327C7.5158 14.9885 9.02106 16.4858 10.8526 16.5069C12.6211 16.528 14.2737 15.1678 14.2737 13.1749C14.2737 11.1082 12.6842 9.80072 10.9053 9.80072C9.06317 9.80072 7.5579 11.2875 7.54738 13.1327ZM20.4842 14.1028C21.4842 14.1766 22.6 13.3436 22.6105 11.9729C22.621 10.8341 21.7053 9.90617 20.5684 9.89562H20.5263C19.3684 9.87454 18.4211 10.8024 18.4 11.9518V11.9834C18.4 13.1854 19.2947 14.1028 20.4842 14.1028V14.1028Z" fill="white"/>
<path d="M26.0844 16.043C26.2318 17.8144 25.7897 19.375 24.9055 20.809C23.7055 22.7491 21.916 23.9723 19.8107 24.742C17.6634 25.5223 15.3792 25.8281 13.1055 25.6594C11.7476 25.5645 10.3792 25.3641 9.15811 24.7209C7.05285 23.6032 5.74758 21.8212 5.06337 19.5542C5.03179 19.4171 5.02127 19.2695 5.01074 19.1324C12.4318 20.8512 19.4739 20.092 26.0844 16.043V16.043Z" fill="white"/>
<path d="M25.737 9.60045C26.2844 9.40011 26.2844 9.38957 26.2318 8.8729C26.2002 8.57766 26.1896 8.28242 26.337 7.99772C26.4002 7.88173 26.3896 7.73411 26.4002 7.59704C26.4212 7.17526 26.7686 6.84839 27.1896 6.84839C27.6107 6.84839 27.9686 7.18581 27.9896 7.60758C27.9896 8.02935 27.6528 8.37731 27.2318 8.3984C27.0949 8.40895 26.9581 8.3984 26.7686 8.3984C26.7475 8.60929 26.7054 8.79909 26.7265 8.97834C26.7896 9.49501 26.7054 9.92733 26.116 10.1488L27.316 12.2787L25.516 13.3964C24.7581 11.6355 23.6002 10.1804 22.2107 8.85181L23.2844 7.54431C24.2844 8.01881 25.0318 8.778 25.737 9.60045ZM4.07387 16.1274L2.3265 15.5369C2.24229 14.4825 2.46334 13.5019 2.85281 12.5423L2.24229 11.5722C2.02123 11.5722 1.80018 11.6144 1.61071 11.5617C1.18966 11.4668 0.779129 11.3403 0.389656 11.1821C0.0843926 11.0556 -0.0524495 10.6338 0.031761 10.328C0.14755 9.95896 0.494919 9.72699 0.873866 9.75862C1.23176 9.79025 1.5265 10.0644 1.57913 10.4229C1.60018 10.5916 1.57913 10.7709 1.57913 10.9818H2.50544C2.89492 11.1399 2.87387 11.6144 3.1686 11.9202C3.74755 11.161 4.31597 10.4018 5.17913 9.86406L5.97913 10.4862C5.3686 11.3297 4.71597 12.1205 4.49492 13.1012C4.27387 14.0923 4.21071 15.0835 4.07387 16.1274Z" fill="white"/>
<path d="M11.2319 7.22782L10.874 6.3421C11.8635 5.55127 12.9898 5.2244 14.1793 5.06623C14.2003 4.74991 14.0424 4.61283 13.8003 4.4863C12.9793 4.06453 12.8424 3.07336 13.4951 2.47233C13.8845 2.11383 14.3477 2.06111 14.8109 2.24036C15.2319 2.38798 15.5267 2.77812 15.5582 3.23152C15.6319 3.71656 15.4003 4.19106 14.9793 4.43358C14.8635 4.49684 14.7372 4.54956 14.6214 4.60228L14.7477 5.00297C15.8109 4.98188 16.853 4.99242 17.8845 5.40365L17.7372 6.27883C15.5582 6.28937 13.3477 6.17339 11.2319 7.22782V7.22782Z" fill="white"/>
</svg>
