<svg width="28" height="28" viewBox="0 0 28 28" fill="none" xmlns="http://www.w3.org/2000/svg">
<path d="M8.96976 28C11.505 28 13.5626 25.9094 13.5626 23.3334V18.6667H8.96976C6.43453 18.6667 4.37695 20.7574 4.37695 23.3334C4.37695 25.9094 6.43453 28 8.96976 28Z" fill="#0ACF83"/>
<path d="M4.37695 13.9999C4.37695 11.4239 6.43453 9.33325 8.96976 9.33325H13.5626V18.6665H8.96976C6.43453 18.6665 4.37695 16.5759 4.37695 13.9999Z" fill="#A259FF"/>
<path d="M4.37695 4.66667C4.37695 2.09067 6.43453 0 8.96976 0H13.5626V9.33333H8.96976C6.43453 9.33333 4.37695 7.24267 4.37695 4.66667Z" fill="#F24E1E"/>
<path d="M13.5625 0H18.1554C20.6906 0 22.7482 2.09067 22.7482 4.66667C22.7482 7.24267 20.6906 9.33333 18.1554 9.33333H13.5625V0Z" fill="#FF7262"/>
<path d="M22.7482 13.9999C22.7482 16.5759 20.6906 18.6665 18.1554 18.6665C15.6201 18.6665 13.5625 16.5759 13.5625 13.9999C13.5625 11.4239 15.6201 9.33325 18.1554 9.33325C20.6906 9.33325 22.7482 11.4239 22.7482 13.9999Z" fill="#1ABCFE"/>
</svg>
