<svg width="24" height="24" viewBox="0 0 24 24" fill="none" xmlns="http://www.w3.org/2000/svg">
<path d="M7.68815 24C9.86121 24 11.6248 22.208 11.6248 20V16H7.68815C5.5151 16 3.75146 17.792 3.75146 20C3.75146 22.208 5.5151 24 7.68815 24Z" fill="#0ACF83"/>
<path d="M3.75146 12C3.75146 9.79199 5.5151 8 7.68815 8H11.6248V16H7.68815C5.5151 16 3.75146 14.208 3.75146 12Z" fill="#A259FF"/>
<path d="M3.75195 4C3.75195 1.792 5.51559 0 7.68864 0H11.6253V8H7.68864C5.51559 8 3.75195 6.208 3.75195 4Z" fill="#F24E1E"/>
<path d="M11.625 0H15.5617C17.7348 0 19.4985 1.792 19.4985 4C19.4985 6.208 17.7348 8 15.5617 8H11.625V0Z" fill="#FF7262"/>
<path d="M19.4985 12C19.4985 14.208 17.7348 16 15.5617 16C13.3887 16 11.625 14.208 11.625 12C11.625 9.79199 13.3887 8 15.5617 8C17.7348 8 19.4985 9.79199 19.4985 12Z" fill="#1ABCFE"/>
</svg>
