<svg width="24" height="24" viewBox="0 0 24 24" fill="none" xmlns="http://www.w3.org/2000/svg">
<g clip-path="url(#clip0_63_88361)">
<path d="M8.16353 2.20573C9.2333 2.539 9.56529 3.39993 9.56529 4.3812C9.55607 5.15882 9.46385 5.93643 9.27941 6.69553C8.88286 8.42665 8.39408 10.1392 7.98831 11.8611C7.65632 13.2775 7.35199 14.7124 7.34276 16.175C7.35199 16.5731 7.41654 16.9711 7.52721 17.3507C7.73931 18.1098 8.37564 18.1653 8.85519 17.7025C9.15952 17.4062 9.43618 17.0915 9.68518 16.749C10.8841 15.1475 11.9446 13.4441 12.8484 11.6574C13.7245 9.94485 15.7257 6.07529 15.8456 5.84386C16.4727 4.68669 18.2064 4.8811 18.7321 6.01049C19.0272 6.62147 19.1932 7.29726 19.2209 7.97304C19.267 9.43569 19.4053 13.5182 19.4699 14.1014C19.5897 15.2308 20.3091 15.5918 21.2682 14.9623C21.8492 14.5828 22.3748 14.1014 22.9005 13.6478C23.3893 13.2127 23.6475 13.259 23.8873 13.8699C24.0994 14.4069 24.0071 14.9438 23.8319 15.4529C23.2417 17.1748 21.9598 18.0913 20.2537 18.4616C19.7096 18.5819 19.1471 18.5912 18.5938 18.4986C17.3672 18.2949 16.5833 17.5821 16.113 16.4805C15.6611 15.4159 15.5228 12.3888 15.4213 12C15.2553 12.3517 13.291 16.4157 12.2582 17.9617C11.6126 18.9522 10.8287 19.8502 9.92496 20.6185C9.03041 21.3684 8.01598 21.8312 6.82632 21.859C5.38767 21.896 4.34557 21.2388 3.62625 20.0168C3.16514 19.2299 2.97148 18.3505 2.90692 17.4433C2.8147 16.175 3.01759 14.9345 3.29425 13.6941C3.38647 13.296 3.45103 12.8887 3.55247 12.3795C3.15592 12.5832 2.8977 12.7683 2.60259 12.8702C2.25215 12.9905 1.87404 13.1108 1.50516 13.1016C0.195618 13.0646 0.00195312 11.6112 0.00195312 11.3705C0.444615 11.028 0.914943 10.7132 1.32072 10.3429C3.25736 8.58402 4.71446 6.47335 5.76578 4.08497C6.11622 3.2981 6.54966 2.62231 7.32432 2.20573C7.58254 2.09465 7.81309 2.08539 8.16353 2.20573Z" fill="white"/>
</g>
<defs>
<clipPath id="clip0_63_88361">
<rect width="24" height="24" fill="white"/>
</clipPath>
</defs>
</svg>
