<svg width="28" height="28" viewBox="0 0 28 28" fill="none" xmlns="http://www.w3.org/2000/svg">
<g clip-path="url(#clip0_63_86685)">
<path d="M0 14C0 11.4613 0.625352 9.11868 1.876 6.972C3.12668 4.82532 4.82535 3.12668 6.972 1.876C9.11868 0.625324 11.4614 0 14 0C16.5387 0 18.8814 0.625324 21.028 1.876C23.1747 3.12668 24.8734 4.82532 26.124 6.972C27.3747 9.11868 28 11.4613 28 14C28 16.5387 27.3747 18.8813 26.124 21.028C24.8734 23.1747 23.1747 24.8733 21.028 26.124C18.8814 27.3747 16.5387 28 14 28C11.4614 28 9.11868 27.3747 6.972 26.124C4.82535 24.8733 3.12668 23.1747 1.876 21.028C0.625352 18.8813 0 16.5387 0 14ZM2.324 14C2.324 16.912 3.304 19.4787 5.264 21.7C6.16 19.9453 7.57868 18.2747 9.52 16.688C11.4614 15.1013 13.356 14.1027 15.204 13.692C14.924 13.0387 14.6534 12.4507 14.392 11.928C11.1814 12.9547 7.70935 13.468 3.976 13.468C3.248 13.468 2.70668 13.4587 2.352 13.44C2.352 13.5147 2.34735 13.608 2.338 13.72C2.32868 13.832 2.324 13.9253 2.324 14ZM2.688 11.116C3.09868 11.1533 3.70535 11.172 4.508 11.172C7.62535 11.172 10.584 10.752 13.384 9.912C11.9654 7.392 10.4067 5.292 8.708 3.612C7.23335 4.35868 5.96868 5.39468 4.914 6.72C3.85935 8.04532 3.11735 9.51068 2.688 11.116ZM6.86 23.212C8.96935 24.8547 11.3494 25.676 14 25.676C15.3814 25.676 16.7534 25.4147 18.116 24.892C17.7427 21.7 17.0147 18.6107 15.932 15.624C14.2147 15.9973 12.4834 16.94 10.738 18.452C8.99268 19.964 7.7 21.5507 6.86 23.212ZM11.144 2.716C12.7867 4.41468 14.308 6.53332 15.708 9.072C18.2467 8.008 20.16 6.65468 21.448 5.012C19.2827 3.22 16.8 2.324 14 2.324C13.048 2.324 12.096 2.45468 11.144 2.716ZM16.716 11.06C16.996 11.6573 17.3134 12.4133 17.668 13.328C19.0494 13.1973 20.552 13.132 22.176 13.132C23.3334 13.132 24.4814 13.16 25.62 13.216C25.4707 10.6773 24.556 8.41868 22.876 6.44C21.6627 8.25068 19.6094 9.79068 16.716 11.06ZM18.368 15.288C19.32 18.0507 19.964 20.888 20.3 23.8C21.7747 22.848 22.9787 21.6253 23.912 20.132C24.8454 18.6387 25.4054 17.024 25.592 15.288C24.2294 15.1947 22.988 15.148 21.868 15.148C20.8414 15.148 19.6747 15.1947 18.368 15.288Z" fill="white"/>
</g>
<defs>
<clipPath id="clip0_63_86685">
<rect width="28" height="28" fill="white"/>
</clipPath>
</defs>
</svg>
