<svg width="24" height="24" viewBox="0 0 24 24" fill="none" xmlns="http://www.w3.org/2000/svg">
<path d="M7.50567 21.6032C16.5122 21.6032 21.4375 14.1845 21.4375 7.75116C21.4375 7.54047 21.4332 7.33075 21.4237 7.12189C22.382 6.43241 23.2091 5.57872 23.8662 4.60085C22.9888 4.98867 22.0447 5.2497 21.0542 5.36738C22.0652 4.76468 22.8413 3.81118 23.2075 2.67461C22.2463 3.24154 21.1947 3.6412 20.0982 3.85635C19.2047 2.91003 17.9326 2.31818 16.524 2.31818C13.8199 2.31818 11.6271 4.49845 11.6271 7.18596C11.6271 7.56805 11.6702 7.93957 11.7542 8.29606C7.68457 8.09246 4.07592 6.15518 1.66083 3.20943C1.22585 3.95241 0.99706 4.79681 0.997819 5.65642C0.997819 7.3455 1.86224 8.83657 3.17682 9.70893C2.39923 9.68532 1.63871 9.47649 0.959207 9.1C0.958479 9.12045 0.958479 9.14036 0.958479 9.1622C0.958479 11.5199 2.64628 13.4885 4.88679 13.9346C4.46599 14.0485 4.03178 14.1061 3.59564 14.1059C3.28068 14.1059 2.97372 14.0751 2.67539 14.0181C3.29877 15.9525 5.10639 17.3602 7.24954 17.3995C5.57362 18.7055 3.46249 19.4835 1.16799 19.4835C0.777663 19.4838 0.387659 19.4613 0 19.416C2.16707 20.7971 4.74025 21.6029 7.50591 21.6029" fill="white"/>
</svg>
