<svg width="28" height="28" viewBox="0 0 28 28" fill="none" xmlns="http://www.w3.org/2000/svg">
<g clip-path="url(#clip0_63_86791)">
<path d="M9.33457 14C9.33457 11.4228 11.4233 9.33296 14.0005 9.33296C16.5777 9.33296 18.6675 11.4228 18.6675 14C18.6675 16.5772 16.5777 18.667 14.0005 18.667C11.4233 18.667 9.33457 16.5772 9.33457 14ZM6.81165 14C6.81165 17.9704 10.0301 21.1888 14.0005 21.1888C17.9709 21.1888 21.1893 17.9704 21.1893 14C21.1893 10.0296 17.9709 6.81117 14.0005 6.81117C10.0301 6.81117 6.81165 10.0296 6.81165 14ZM19.7939 6.52613C19.7938 6.8584 19.8922 7.18325 20.0767 7.4596C20.2612 7.73595 20.5234 7.95138 20.8304 8.07866C21.1373 8.20594 21.4751 8.23934 21.801 8.17465C22.1269 8.10996 22.4263 7.95007 22.6614 7.71521C22.8964 7.48036 23.0565 7.18107 23.1215 6.85521C23.1864 6.52935 23.1533 6.19154 23.0263 5.88451C22.8992 5.57748 22.684 5.31502 22.4078 5.1303C22.1316 4.94559 21.8069 4.84693 21.4746 4.8468H21.4739C21.0285 4.84701 20.6014 5.02398 20.2864 5.33885C19.9714 5.65372 19.7943 6.08074 19.7939 6.52613V6.52613ZM8.34449 25.3957C6.97954 25.3335 6.23765 25.1061 5.74463 24.9141C5.091 24.6596 4.62463 24.3565 4.1343 23.8669C3.64396 23.3772 3.34044 22.9113 3.0871 22.2576C2.8949 21.7648 2.66754 21.0227 2.6055 19.6578C2.53762 18.1821 2.52407 17.7388 2.52407 14.0001C2.52407 10.2614 2.53874 9.81938 2.6055 8.34243C2.66766 6.97749 2.8967 6.23683 3.0871 5.74258C3.34156 5.08894 3.64463 4.62258 4.1343 4.13224C4.62396 3.6419 5.08988 3.33838 5.74463 3.08504C6.23743 2.89285 6.97954 2.66549 8.34449 2.60344C9.8202 2.53557 10.2635 2.52202 14.0005 2.52202C17.7375 2.52202 18.1812 2.53669 19.6582 2.60344C21.0231 2.6656 21.7638 2.89464 22.258 3.08504C22.9117 3.33838 23.378 3.64258 23.8684 4.13224C24.3587 4.6219 24.6611 5.08894 24.9156 5.74258C25.1077 6.23538 25.3351 6.97749 25.3972 8.34243C25.465 9.81938 25.4786 10.2614 25.4786 14.0001C25.4786 17.7388 25.465 18.1808 25.3972 19.6578C25.335 21.0227 25.1065 21.7646 24.9156 22.2576C24.6611 22.9113 24.358 23.3776 23.8684 23.8669C23.3787 24.3561 22.9117 24.6596 22.258 24.9141C21.7652 25.1063 21.0231 25.3336 19.6582 25.3957C18.1825 25.4635 17.7392 25.4771 14.0005 25.4771C10.2618 25.4771 9.81975 25.4635 8.34449 25.3957V25.3957ZM8.22857 0.084784C6.73818 0.152656 5.71977 0.388976 4.83037 0.735056C3.90929 1.09245 3.12954 1.57192 2.35036 2.34987C1.57118 3.12782 1.09294 3.9088 0.735544 4.82989C0.389464 5.71984 0.153144 6.7377 0.0852723 8.22808C0.0162803 9.72082 0.000488281 10.198 0.000488281 14C0.000488281 17.802 0.0162803 18.2792 0.0852723 19.7719C0.153144 21.2624 0.389464 22.2802 0.735544 23.1701C1.09294 24.0906 1.57129 24.8725 2.35036 25.6501C3.12943 26.4277 3.90929 26.9065 4.83037 27.2649C5.72145 27.611 6.73818 27.8473 8.22857 27.9152C9.72209 27.9831 10.1985 28 14.0005 28C17.8024 28 18.2797 27.9842 19.7724 27.9152C21.2629 27.8473 22.2806 27.611 23.1706 27.2649C24.0911 26.9065 24.8714 26.4281 25.6506 25.6501C26.4298 24.8722 26.907 24.0906 27.2654 23.1701C27.6115 22.2802 27.8489 21.2623 27.9157 19.7719C27.9836 18.2781 27.9994 17.802 27.9994 14C27.9994 10.198 27.9836 9.72082 27.9157 8.22808C27.8478 6.73758 27.6115 5.71928 27.2654 4.82989C26.907 3.90936 26.4286 3.12906 25.6506 2.34987C24.8727 1.57069 24.0911 1.09245 23.1717 0.735056C22.2806 0.388976 21.2628 0.151536 19.7735 0.084784C18.2808 0.016912 17.8036 0 14.0016 0C10.1997 0 9.72209 0.015792 8.22857 0.084784Z" fill="white"/>
<path d="M9.33457 14C9.33457 11.4228 11.4233 9.33296 14.0005 9.33296C16.5777 9.33296 18.6675 11.4228 18.6675 14C18.6675 16.5772 16.5777 18.667 14.0005 18.667C11.4233 18.667 9.33457 16.5772 9.33457 14ZM6.81165 14C6.81165 17.9704 10.0301 21.1888 14.0005 21.1888C17.9709 21.1888 21.1893 17.9704 21.1893 14C21.1893 10.0296 17.9709 6.81117 14.0005 6.81117C10.0301 6.81117 6.81165 10.0296 6.81165 14ZM19.7939 6.52613C19.7938 6.8584 19.8922 7.18325 20.0767 7.4596C20.2612 7.73595 20.5234 7.95138 20.8304 8.07866C21.1373 8.20594 21.4751 8.23934 21.801 8.17465C22.1269 8.10996 22.4263 7.95007 22.6614 7.71521C22.8964 7.48036 23.0565 7.18107 23.1215 6.85521C23.1864 6.52935 23.1533 6.19154 23.0263 5.88451C22.8992 5.57748 22.684 5.31502 22.4078 5.1303C22.1316 4.94559 21.8069 4.84693 21.4746 4.8468H21.4739C21.0285 4.84701 20.6014 5.02398 20.2864 5.33885C19.9714 5.65372 19.7943 6.08074 19.7939 6.52613V6.52613ZM8.34449 25.3957C6.97954 25.3335 6.23765 25.1061 5.74463 24.9141C5.091 24.6596 4.62463 24.3565 4.1343 23.8669C3.64396 23.3772 3.34044 22.9113 3.0871 22.2576C2.8949 21.7648 2.66754 21.0227 2.6055 19.6578C2.53762 18.1821 2.52407 17.7388 2.52407 14.0001C2.52407 10.2614 2.53874 9.81938 2.6055 8.34243C2.66766 6.97749 2.8967 6.23683 3.0871 5.74258C3.34156 5.08894 3.64463 4.62258 4.1343 4.13224C4.62396 3.6419 5.08988 3.33838 5.74463 3.08504C6.23743 2.89285 6.97954 2.66549 8.34449 2.60344C9.8202 2.53557 10.2635 2.52202 14.0005 2.52202C17.7375 2.52202 18.1812 2.53669 19.6582 2.60344C21.0231 2.6656 21.7638 2.89464 22.258 3.08504C22.9117 3.33838 23.378 3.64258 23.8684 4.13224C24.3587 4.6219 24.6611 5.08894 24.9156 5.74258C25.1077 6.23538 25.3351 6.97749 25.3972 8.34243C25.465 9.81938 25.4786 10.2614 25.4786 14.0001C25.4786 17.7388 25.465 18.1808 25.3972 19.6578C25.335 21.0227 25.1065 21.7646 24.9156 22.2576C24.6611 22.9113 24.358 23.3776 23.8684 23.8669C23.3787 24.3561 22.9117 24.6596 22.258 24.9141C21.7652 25.1063 21.0231 25.3336 19.6582 25.3957C18.1825 25.4635 17.7392 25.4771 14.0005 25.4771C10.2618 25.4771 9.81975 25.4635 8.34449 25.3957V25.3957ZM8.22857 0.084784C6.73818 0.152656 5.71977 0.388976 4.83037 0.735056C3.90929 1.09245 3.12954 1.57192 2.35036 2.34987C1.57118 3.12782 1.09294 3.9088 0.735544 4.82989C0.389464 5.71984 0.153144 6.7377 0.0852723 8.22808C0.0162803 9.72082 0.000488281 10.198 0.000488281 14C0.000488281 17.802 0.0162803 18.2792 0.0852723 19.7719C0.153144 21.2624 0.389464 22.2802 0.735544 23.1701C1.09294 24.0906 1.57129 24.8725 2.35036 25.6501C3.12943 26.4277 3.90929 26.9065 4.83037 27.2649C5.72145 27.611 6.73818 27.8473 8.22857 27.9152C9.72209 27.9831 10.1985 28 14.0005 28C17.8024 28 18.2797 27.9842 19.7724 27.9152C21.2629 27.8473 22.2806 27.611 23.1706 27.2649C24.0911 26.9065 24.8714 26.4281 25.6506 25.6501C26.4298 24.8722 26.907 24.0906 27.2654 23.1701C27.6115 22.2802 27.8489 21.2623 27.9157 19.7719C27.9836 18.2781 27.9994 17.802 27.9994 14C27.9994 10.198 27.9836 9.72082 27.9157 8.22808C27.8478 6.73758 27.6115 5.71928 27.2654 4.82989C26.907 3.90936 26.4286 3.12906 25.6506 2.34987C24.8727 1.57069 24.0911 1.09245 23.1717 0.735056C22.2806 0.388976 21.2628 0.151536 19.7735 0.084784C18.2808 0.016912 17.8036 0 14.0016 0C10.1997 0 9.72209 0.015792 8.22857 0.084784Z" fill="white"/>
</g>
<defs>
<clipPath id="clip0_63_86791">
<rect width="28" height="28" fill="white"/>
</clipPath>
</defs>
</svg>
