<svg width="24" height="1005" viewBox="0 0 24 1005" fill="none" xmlns="http://www.w3.org/2000/svg">
<path d="M7.47028 993.28L7.5544 993.353C7.84801 993.571 8.26467 993.546 8.53094 993.28L11.2503 990.561L11.2506 997.25L11.2575 997.352C11.3071 997.718 11.6209 998 12.0006 998L12.1024 997.994C12.4685 997.944 12.7506 997.63 12.7506 997.25L12.7503 990.559L15.471 993.281L15.5551 993.353C15.8487 993.571 16.2653 993.547 16.5317 993.281C16.8246 992.988 16.8247 992.513 16.5319 992.22L12.5319 988.219L12.4477 988.146C12.1541 987.928 11.7374 987.952 11.4711 988.219L7.47028 992.219L7.39766 992.304C7.17981 992.597 7.20401 993.014 7.47028 993.28ZM22.001 993C22.001 987.477 17.5238 983 12.001 983C6.47813 983 2.00098 987.477 2.00098 993C2.00098 998.523 6.47813 1003 12.001 1003C17.5238 1003 22.001 998.523 22.001 993ZM3.50098 993C3.50098 988.306 7.30656 984.5 12.001 984.5C16.6954 984.5 20.501 988.306 20.501 993C20.501 997.694 16.6954 1001.5 12.001 1001.5C7.30656 1001.5 3.50098 997.694 3.50098 993Z" fill="#212121"/>
</svg>
