<svg width="24" height="24" viewBox="0 0 24 24" fill="none" xmlns="http://www.w3.org/2000/svg">
<path d="M4.90334 8.58751C5.07209 8.23126 5.26897 7.89376 5.49397 7.56563L5.45647 5.12813C5.45647 4.90313 5.55022 4.68751 5.72834 4.53751C6.60022 3.80626 7.59397 3.21563 8.69084 2.82188C8.90647 2.74688 9.14084 2.76563 9.32834 2.88751L11.419 4.14376C11.8127 4.11563 12.2065 4.11563 12.6002 4.14376L14.6908 2.88751C14.8877 2.77501 15.1221 2.74688 15.3377 2.82188C16.4065 3.20626 17.4096 3.77813 18.3002 4.52813C18.469 4.66876 18.5721 4.89376 18.5627 5.11876L18.5252 7.55626C18.7502 7.88438 18.9471 8.22188 19.1158 8.57813L21.244 9.75938C21.4408 9.87188 21.5815 10.0594 21.619 10.2844C21.8158 11.4 21.8252 12.5625 21.619 13.6969C21.5815 13.9219 21.4408 14.1094 21.244 14.2219L19.1158 15.4031C18.9471 15.7594 18.7502 16.0969 18.5252 16.425L18.5627 18.8625C18.5627 19.0875 18.469 19.3031 18.2908 19.4531C17.419 20.1844 16.4252 20.775 15.3283 21.1688C15.1127 21.2438 14.8783 21.225 14.6908 21.1031L12.6002 19.8469C12.2065 19.875 11.8127 19.875 11.419 19.8469L9.32834 21.1031C9.13147 21.2156 8.89709 21.2438 8.68147 21.1688C7.61272 20.7844 6.60959 20.2125 5.71897 19.4625C5.55022 19.3219 5.44709 19.0969 5.45647 18.8719L5.49397 16.4344C5.26897 16.1063 5.07209 15.7688 4.90334 15.4125L2.77522 14.2313C2.57834 14.1188 2.43772 13.9313 2.40022 13.7063C2.20334 12.5906 2.19397 11.4281 2.40022 10.2938C2.43772 10.0688 2.57834 9.88126 2.77522 9.76876L4.90334 8.58751Z" stroke="#767F8C" stroke-width="1.5" stroke-miterlimit="10" stroke-linecap="round" stroke-linejoin="round"/>
<path d="M12 16.5C14.4853 16.5 16.5 14.4853 16.5 12C16.5 9.51472 14.4853 7.5 12 7.5C9.51472 7.5 7.5 9.51472 7.5 12C7.5 14.4853 9.51472 16.5 12 16.5Z" stroke="#767F8C" stroke-width="1.5" stroke-miterlimit="10" stroke-linecap="round" stroke-linejoin="round"/>
</svg>
