<svg width="24" height="24" viewBox="0 0 24 24" fill="none" xmlns="http://www.w3.org/2000/svg">
<path d="M8.81787 15.1811L15.1818 8.81714" stroke="#0A65CC" stroke-width="1.5" stroke-linecap="round" stroke-linejoin="round"/>
<path d="M13.5904 16.7728L10.9388 19.4245C10.0948 20.2682 8.95028 20.7421 7.75694 20.742C6.5636 20.7419 5.41916 20.2678 4.57534 19.4239C3.73152 18.5801 3.25743 17.4357 3.25732 16.2423C3.25722 15.049 3.73112 13.9045 4.5748 13.0605L7.22645 10.4089" stroke="#0A65CC" stroke-width="1.5" stroke-linecap="round" stroke-linejoin="round"/>
<path d="M16.7727 13.5904L19.4243 10.9388C20.268 10.0948 20.7419 8.95028 20.7418 7.75694C20.7417 6.5636 20.2676 5.41916 19.4238 4.57534C18.5799 3.73152 17.4355 3.25743 16.2422 3.25732C15.0488 3.25722 13.9043 3.73112 13.0603 4.5748L10.4087 7.22645" stroke="#0A65CC" stroke-width="1.5" stroke-linecap="round" stroke-linejoin="round"/>
</svg>
