<svg width="32" height="32" viewBox="0 0 32 32" fill="none" xmlns="http://www.w3.org/2000/svg">
<g clip-path="url(#clip0_22_1844)">
<path opacity="0.2" d="M26.721 5.37337C26.87 5.32991 27.0271 5.32173 27.1799 5.3495C27.3326 5.37728 27.4768 5.44023 27.601 5.53337C27.7252 5.62652 27.826 5.7473 27.8954 5.88616C27.9648 6.02502 28.001 6.17813 28.001 6.33337V23.6667C28.001 23.8219 27.9648 23.9751 27.8954 24.1139C27.826 24.2528 27.7252 24.3736 27.601 24.4667C27.4768 24.5598 27.3326 24.6228 27.1799 24.6506C27.0271 24.6783 26.87 24.6702 26.721 24.6267L15.0002 21.2082V8.79191L26.721 5.37337Z" fill="#0A65CC"/>
<path d="M28.001 6.33337V23.6667C28.001 23.8219 27.9648 23.9751 27.8954 24.1139C27.826 24.2528 27.7252 24.3736 27.601 24.4667C27.4768 24.5598 27.3326 24.6228 27.1799 24.6506C27.0271 24.6783 26.87 24.6702 26.721 24.6267L4.72098 18.21C4.51326 18.1495 4.3308 18.0231 4.20098 17.85C4.07116 17.6769 4.00098 17.4664 4.00098 17.25V12.75C4.00098 12.5337 4.07116 12.3231 4.20098 12.15C4.3308 11.9769 4.51326 11.8506 4.72098 11.79L26.721 5.37337C26.87 5.32991 27.0271 5.32173 27.1799 5.3495C27.3326 5.37728 27.4768 5.44023 27.601 5.53337C27.7252 5.62652 27.826 5.7473 27.8954 5.88616C27.9648 6.02502 28.001 6.17813 28.001 6.33337V6.33337Z" stroke="#0A65CC" stroke-width="2" stroke-linecap="round" stroke-linejoin="round"/>
<path d="M9 19.4581V24C9 24.2652 9.10536 24.5196 9.29289 24.7071C9.48043 24.8946 9.73478 25 10 25H14C14.2652 25 14.5196 24.8946 14.7071 24.7071C14.8946 24.5196 15 24.2652 15 24V8.79187" stroke="#0A65CC" stroke-width="2" stroke-linecap="round" stroke-linejoin="round"/>
</g>
<defs>
<clipPath id="clip0_22_1844">
<rect width="32" height="32" fill="white" transform="matrix(-1 0 0 1 32 0)"/>
</clipPath>
</defs>
</svg>
