<svg width="24" height="24" viewBox="0 0 24 24" fill="none" xmlns="http://www.w3.org/2000/svg">
<g clip-path="url(#clip0_47_9104)">
<path d="M7.5 13.5C9.57107 13.5 11.25 11.8211 11.25 9.75C11.25 7.67893 9.57107 6 7.5 6C5.42893 6 3.75 7.67893 3.75 9.75C3.75 11.8211 5.42893 13.5 7.5 13.5Z" stroke="#767F8C" stroke-width="1.5" stroke-linecap="round" stroke-linejoin="round"/>
<path d="M14.25 7.5H23.25" stroke="#767F8C" stroke-width="1.5" stroke-linecap="round" stroke-linejoin="round"/>
<path d="M14.25 12H23.25" stroke="#767F8C" stroke-width="1.5" stroke-linecap="round" stroke-linejoin="round"/>
<path d="M16.5 16.5H23.25" stroke="#767F8C" stroke-width="1.5" stroke-linecap="round" stroke-linejoin="round"/>
<path d="M1.6875 18C2.01795 16.7094 2.76855 15.5655 3.82097 14.7486C4.87338 13.9317 6.16774 13.4883 7.5 13.4883C8.83226 13.4883 10.1266 13.9317 11.179 14.7486C12.2314 15.5655 12.982 16.7094 13.3125 18" stroke="#767F8C" stroke-width="1.5" stroke-linecap="round" stroke-linejoin="round"/>
</g>
<defs>
<clipPath id="clip0_47_9104">
<rect width="24" height="24" fill="white"/>
</clipPath>
</defs>
</svg>
